<svg xmlns="http://www.w3.org/2000/svg" viewBox="0 0 256 256" role="img" aria-label="PromQL icon candidate 1">
  <rect width="256" height="256" rx="44" fill="#202124"/>
  <circle cx="128" cy="128" r="94" fill="#e6522c"/>
  <path d="M128 42c-17 28-12 52 2 72 7-19 20-33 40-43-2 41-17 64-37 81 16-4 30-12 43-24-2 39-25 67-48 78-23-11-46-39-48-78 13 12 27 20 43 24-20-17-35-40-37-81 20 10 33 24 40 43 14-20 19-44 2-72Z" fill="#fff"/>
  <path d="M84 116c-15 9-24 24-24 42 0 30 30 54 68 54s68-24 68-54c0-18-9-33-24-42 4 11 3 24-4 37-9 17-24 28-40 33-16-5-31-16-40-33-7-13-8-26-4-37Z" fill="#fff"/>
  <path d="M95 91c-12 13-20 27-20 44 0 28 24 51 53 51s53-23 53-51c0-17-8-31-20-44 2 29-10 53-33 66-23-13-35-37-33-66Z" fill="#e6522c"/>
  <path d="M72 103 50 128l22 25" fill="none" stroke="#fff" stroke-width="13" stroke-linecap="round" stroke-linejoin="round"/>
  <path d="M184 103 206 128l-22 25" fill="none" stroke="#fff" stroke-width="13" stroke-linecap="round" stroke-linejoin="round"/>
  <path d="M96 207h64" stroke="#202124" stroke-width="15" stroke-linecap="round"/>
</svg>
